<mxfile host="app.diagrams.net" modified="2023-03-14T09:11:59.442Z" agent="5.0 (Windows)" etag="kZwNkP7o0qckJqQ50FSr" version="20.8.13" type="github">
  <diagram name="Sivu-1" id="2Eu6WwTexLYWZvn8UhFr">
    <mxGraphModel dx="1687" dy="920" grid="1" gridSize="10" guides="1" tooltips="1" connect="1" arrows="1" fold="1" page="1" pageScale="1" pageWidth="827" pageHeight="1169" math="0" shadow="0">
      <root>
        <mxCell id="0" />
        <mxCell id="1" parent="0" />
        <mxCell id="n3FAYLeEwwVxHscSPBpA-1" value="" style="rounded=1;whiteSpace=wrap;html=1;fillColor=none;container=0;" vertex="1" parent="1">
          <mxGeometry x="40" y="80" width="760" height="220" as="geometry" />
        </mxCell>
        <mxCell id="n3FAYLeEwwVxHscSPBpA-2" value="" style="rounded=1;whiteSpace=wrap;html=1;container=0;" vertex="1" parent="1">
          <mxGeometry x="60" y="160" width="210" height="66.5" as="geometry" />
        </mxCell>
        <mxCell id="n3FAYLeEwwVxHscSPBpA-3" value="" style="rounded=1;whiteSpace=wrap;html=1;container=0;" vertex="1" parent="1">
          <mxGeometry x="330" y="100" width="190" height="61.75" as="geometry" />
        </mxCell>
        <mxCell id="n3FAYLeEwwVxHscSPBpA-4" value="" style="rounded=1;whiteSpace=wrap;html=1;container=0;" vertex="1" parent="1">
          <mxGeometry x="330" y="217.25" width="190" height="62.75" as="geometry" />
        </mxCell>
        <mxCell id="n3FAYLeEwwVxHscSPBpA-8" style="edgeStyle=orthogonalEdgeStyle;rounded=0;orthogonalLoop=1;jettySize=auto;html=1;exitX=0.5;exitY=1;exitDx=0;exitDy=0;entryX=0.5;entryY=0;entryDx=0;entryDy=0;" edge="1" parent="1" source="n3FAYLeEwwVxHscSPBpA-3" target="n3FAYLeEwwVxHscSPBpA-4">
          <mxGeometry relative="1" as="geometry" />
        </mxCell>
        <mxCell id="n3FAYLeEwwVxHscSPBpA-5" value="" style="rounded=1;whiteSpace=wrap;html=1;container=0;" vertex="1" parent="1">
          <mxGeometry x="580" y="217.25" width="190" height="62.75" as="geometry" />
        </mxCell>
        <mxCell id="n3FAYLeEwwVxHscSPBpA-9" style="edgeStyle=orthogonalEdgeStyle;rounded=0;orthogonalLoop=1;jettySize=auto;html=1;exitX=1;exitY=0.5;exitDx=0;exitDy=0;entryX=0;entryY=0.5;entryDx=0;entryDy=0;" edge="1" parent="1" source="n3FAYLeEwwVxHscSPBpA-4" target="n3FAYLeEwwVxHscSPBpA-5">
          <mxGeometry relative="1" as="geometry" />
        </mxCell>
        <mxCell id="n3FAYLeEwwVxHscSPBpA-6" value="" style="curved=1;endArrow=classic;html=1;rounded=0;exitX=1;exitY=0.5;exitDx=0;exitDy=0;" edge="1" parent="1" source="n3FAYLeEwwVxHscSPBpA-2" target="n3FAYLeEwwVxHscSPBpA-3">
          <mxGeometry width="50" height="50" relative="1" as="geometry">
            <mxPoint x="260" y="190" as="sourcePoint" />
            <mxPoint x="550" y="152.5" as="targetPoint" />
            <Array as="points">
              <mxPoint x="290" y="193" />
              <mxPoint x="300" y="124.75" />
            </Array>
          </mxGeometry>
        </mxCell>
        <mxCell id="n3FAYLeEwwVxHscSPBpA-7" value="" style="curved=1;endArrow=classic;html=1;rounded=0;exitX=1;exitY=0.5;exitDx=0;exitDy=0;entryX=0;entryY=0.5;entryDx=0;entryDy=0;" edge="1" parent="1" source="n3FAYLeEwwVxHscSPBpA-2" target="n3FAYLeEwwVxHscSPBpA-4">
          <mxGeometry width="50" height="50" relative="1" as="geometry">
            <mxPoint x="240" y="319" as="sourcePoint" />
            <mxPoint x="340" y="254.25" as="targetPoint" />
            <Array as="points">
              <mxPoint x="290" y="190" />
              <mxPoint x="300" y="250" />
            </Array>
          </mxGeometry>
        </mxCell>
        <mxCell id="n3FAYLeEwwVxHscSPBpA-10" value="" style="rounded=1;whiteSpace=wrap;html=1;container=0;" vertex="1" parent="1">
          <mxGeometry x="580" y="330" width="190" height="64" as="geometry" />
        </mxCell>
        <mxCell id="n3FAYLeEwwVxHscSPBpA-11" style="edgeStyle=orthogonalEdgeStyle;rounded=0;orthogonalLoop=1;jettySize=auto;html=1;exitX=0.5;exitY=1;exitDx=0;exitDy=0;entryX=0.5;entryY=0;entryDx=0;entryDy=0;" edge="1" parent="1" source="n3FAYLeEwwVxHscSPBpA-5" target="n3FAYLeEwwVxHscSPBpA-10">
          <mxGeometry relative="1" as="geometry" />
        </mxCell>
        <mxCell id="n3FAYLeEwwVxHscSPBpA-13" value="&lt;div style=&quot;font-size: 15px;&quot; align=&quot;left&quot;&gt;&lt;font style=&quot;font-size: 15px;&quot;&gt;&lt;font style=&quot;font-size: 15px;&quot;&gt;&lt;font style=&quot;font-size: 15px;&quot;&gt;&lt;font style=&quot;font-size: 16px;&quot;&gt;Koulutus- ja testi- joukkojen satunnainen uudelleenjako&lt;/font&gt;&lt;/font&gt;&lt;/font&gt;&lt;/font&gt;&lt;/div&gt;" style="text;html=1;strokeColor=none;fillColor=none;align=left;verticalAlign=middle;whiteSpace=wrap;rounded=0;strokeWidth=3;container=0;" vertex="1" parent="1">
          <mxGeometry x="100" y="179.37" width="170" height="27.75" as="geometry" />
        </mxCell>
        <mxCell id="n3FAYLeEwwVxHscSPBpA-15" value="&lt;font style=&quot;font-size: 15px;&quot;&gt;&lt;b&gt;&lt;font style=&quot;font-size: 15px;&quot;&gt;&lt;font style=&quot;font-size: 16px;&quot;&gt;1a.&lt;/font&gt;&lt;/font&gt;&lt;/b&gt;&lt;/font&gt;" style="text;html=1;strokeColor=none;fillColor=none;align=center;verticalAlign=middle;whiteSpace=wrap;rounded=0;fontSize=12;container=0;" vertex="1" parent="1">
          <mxGeometry x="50" y="160" width="60" height="28.25" as="geometry" />
        </mxCell>
        <mxCell id="n3FAYLeEwwVxHscSPBpA-16" value="&lt;font style=&quot;font-size: 16px;&quot;&gt;&lt;b style=&quot;font-size: 16px;&quot;&gt;&lt;font style=&quot;font-size: 16px;&quot;&gt;1b.&lt;/font&gt;&lt;/b&gt;&lt;/font&gt;" style="text;html=1;strokeColor=none;fillColor=none;align=center;verticalAlign=middle;whiteSpace=wrap;rounded=0;fontSize=16;container=0;" vertex="1" parent="1">
          <mxGeometry x="340" y="115.87" width="50" height="30" as="geometry" />
        </mxCell>
        <mxCell id="n3FAYLeEwwVxHscSPBpA-17" value="&lt;font style=&quot;font-size: 15px;&quot;&gt;&lt;b&gt;&lt;font style=&quot;font-size: 15px;&quot;&gt;&lt;font style=&quot;font-size: 16px;&quot;&gt;1c.&lt;/font&gt;&lt;/font&gt;&lt;/b&gt;&lt;/font&gt;" style="text;html=1;strokeColor=none;fillColor=none;align=center;verticalAlign=middle;whiteSpace=wrap;rounded=0;fontSize=12;container=0;" vertex="1" parent="1">
          <mxGeometry x="330" y="226.5" width="50" height="23.63" as="geometry" />
        </mxCell>
        <mxCell id="n3FAYLeEwwVxHscSPBpA-18" value="&lt;font style=&quot;font-size: 15px;&quot;&gt;&lt;b&gt;&lt;font style=&quot;font-size: 15px;&quot;&gt;&lt;font style=&quot;font-size: 16px;&quot;&gt;2.&lt;/font&gt;&lt;/font&gt;&lt;/b&gt;&lt;/font&gt;" style="text;html=1;strokeColor=none;fillColor=none;align=center;verticalAlign=middle;whiteSpace=wrap;rounded=0;fontSize=12;strokeWidth=1;container=0;" vertex="1" parent="1">
          <mxGeometry x="575" y="220" width="50" height="20" as="geometry" />
        </mxCell>
        <mxCell id="n3FAYLeEwwVxHscSPBpA-20" value="&lt;font style=&quot;font-size: 15px;&quot;&gt;&lt;b&gt;&lt;font style=&quot;font-size: 15px;&quot;&gt;&lt;font style=&quot;font-size: 16px;&quot;&gt;3.&lt;/font&gt;&lt;/font&gt;&lt;/b&gt;&lt;/font&gt;" style="text;html=1;strokeColor=none;fillColor=none;align=center;verticalAlign=middle;whiteSpace=wrap;rounded=0;fontSize=12;container=0;" vertex="1" parent="1">
          <mxGeometry x="567.5" y="347" width="65" height="10" as="geometry" />
        </mxCell>
        <mxCell id="n3FAYLeEwwVxHscSPBpA-22" value="&lt;font style=&quot;font-size: 15px;&quot;&gt;&lt;font style=&quot;font-size: 16px;&quot;&gt;Mallin koulutus&lt;/font&gt;&lt;/font&gt;" style="text;html=1;strokeColor=none;fillColor=none;align=center;verticalAlign=middle;whiteSpace=wrap;rounded=0;fontSize=14;container=0;" vertex="1" parent="1">
          <mxGeometry x="370" y="115.87" width="130" height="30" as="geometry" />
        </mxCell>
        <mxCell id="n3FAYLeEwwVxHscSPBpA-23" value="&lt;div style=&quot;font-size: 15px;&quot; align=&quot;left&quot;&gt;&lt;font style=&quot;font-size: 15px;&quot;&gt;&lt;font style=&quot;font-size: 16px;&quot;&gt;Ennusteet ja niiden selittÃ¤minen&lt;/font&gt;&lt;/font&gt;&lt;/div&gt;" style="text;html=1;strokeColor=none;fillColor=none;align=left;verticalAlign=middle;whiteSpace=wrap;rounded=0;fontSize=14;container=0;" vertex="1" parent="1">
          <mxGeometry x="370" y="233.63" width="146" height="30" as="geometry" />
        </mxCell>
        <mxCell id="n3FAYLeEwwVxHscSPBpA-24" value="&lt;div style=&quot;font-size: 15px;&quot; align=&quot;left&quot;&gt;&lt;font style=&quot;font-size: 15px;&quot;&gt;&lt;font style=&quot;font-size: 16px;&quot;&gt;Mahdollisten avain- sanojen yhteenko- koaminen ja suodatus&lt;/font&gt;&lt;/font&gt;&lt;/div&gt;" style="text;html=1;strokeColor=none;fillColor=none;align=left;verticalAlign=middle;whiteSpace=wrap;rounded=0;fontSize=14;container=0;" vertex="1" parent="1">
          <mxGeometry x="610" y="233.63" width="160" height="30" as="geometry" />
        </mxCell>
        <mxCell id="n3FAYLeEwwVxHscSPBpA-25" value="&lt;font style=&quot;font-size: 15px;&quot;&gt;&lt;font style=&quot;font-size: 16px;&quot;&gt;Vakaiden avainsa- nojen valinta&lt;/font&gt;&lt;/font&gt;" style="text;html=1;strokeColor=none;fillColor=none;align=left;verticalAlign=middle;whiteSpace=wrap;rounded=0;fontSize=14;container=0;" vertex="1" parent="1">
          <mxGeometry x="610" y="347" width="150" height="30" as="geometry" />
        </mxCell>
      </root>
    </mxGraphModel>
  </diagram>
</mxfile>
